<?xml version="1.0" encoding="UTF-8"?>
<svg xmlns="http://www.w3.org/2000/svg" version="1.1" xmlns:svg="http://www.w3.org/2000/svg" xmlns:xlink="http://www.w3.org/1999/xlink" viewBox="0 0 682.7 682.7">
  <!-- Generator: Adobe Illustrator 30.1.0, SVG Export Plug-In . SVG Version: 2.1.1 Build 136)  -->
  <defs>
    <style>
      .st0, .st1 {
        fill: none;
      }

      .st2 {
        clip-path: url(#clippath-1);
      }

      .st3 {
        stroke-width: 15px;
      }

      .st3, .st1 {
        stroke: #000;
        stroke-linecap: round;
        stroke-linejoin: round;
      }

      .st1 {
        stroke-width: 26.7px;
      }

      .st4 {
        clip-path: url(#clippath-2);
      }

      .st5 {
        clip-path: url(#clippath);
      }
    </style>
    <clipPath id="clippath">
      <rect class="st0" y="0" width="682.7" height="682.7"/>
    </clipPath>
    <clipPath id="clippath-1">
      <rect class="st0" y="0" width="682.7" height="682.7"/>
    </clipPath>
    <clipPath id="clippath-2">
      <rect class="st0" y="0" width="682.7" height="682.7"/>
    </clipPath>
  </defs>
  <g id="svg2166">
    <g id="g2172">
      <g id="g2174">
        <g class="st5">
          <g id="g2176">
            <path id="path2182" class="st1" d="M98.7,98.7H13.3V13.3h85.3v85.3Z"/>
            <path id="path2184" class="st1" d="M384,98.7h-85.3V13.3h85.3v85.3Z"/>
            <path id="path2186" class="st1" d="M384,669.3h-85.3v-85.3h85.3v85.3Z"/>
            <path id="path2188" class="st1" d="M584,98.7h85.3V13.3h-85.3v85.3Z"/>
            <path id="path2192" class="st1" d="M98.7,384H13.3v-85.3h85.3v85.3Z"/>
            <path id="path2194" class="st1" d="M584,669.3h85.3v-85.3h-85.3v85.3Z"/>
          </g>
        </g>
      </g>
      <g id="g2196">
        <path id="path2198" class="st1" d="M205.3,626.7h93.3"/>
      </g>
      <g id="g2204">
        <path id="path2206" class="st1" d="M58.6,102.5v196.2"/>
      </g>
      <g id="g2208">
        <path id="path2210" class="st1" d="M58.6,387.8v109.5"/>
      </g>
      <g id="g2212">
        <g class="st2">
          <g id="g2214">
            <path id="path2220" class="st1" d="M669.3,384h-85.3v-85.3h85.3v85.3Z"/>
          </g>
        </g>
      </g>
      <g id="g2224">
        <g class="st4">
          <g id="g2226">
            <g id="g2232">
              <path id="path2234" class="st1" d="M629.2,102.5v196.2"/>
            </g>
            <g id="g2236">
              <path id="path2238" class="st1" d="M629.2,387.8v196.2"/>
            </g>
          </g>
        </g>
      </g>
      <g id="g2244">
        <path id="path2246" class="st1" d="M298.7,57.5H100.2"/>
      </g>
      <g id="g2248">
        <path id="path2250" class="st1" d="M384,626.7h198.8"/>
      </g>
    </g>
    <g id="g22481" data-name="g2248">
      <path id="path22501" data-name="path2250" class="st1" d="M395.6,57.5h188.4"/>
    </g>
    <rect class="st3" x="314.6" y="314.6" width="53.5" height="53.5"/>
  </g>
  <g id="Ebene_2">
    <path d="M80.5,550.2l131.6-131.6c2.9-2.9,7.7-2.9,10.6,0,2.9,2.9,2.9,7.7,0,10.6l-126.3,126.3,32,32,166.2-166.2-7.6-24.4-59.9-18.6c-7.5-2.3-12.9-8.5-14.1-16.3s1.9-15.3,8.3-19.8l50.8-36.2v-63c0-7.8,4.3-14.8,11.3-18.3,7-3.5,15.2-2.7,21.4,2l49.9,37.5,59.3-20.1c7.4-2.5,15.4-.6,21,4.9s7.4,13.6,4.9,21l-20.1,59.3,37.5,49.9c4.7,6.2,5.4,14.4,1.9,21.4-3.5,7-10.5,11.3-18.3,11.3h-63l-36.2,50.8c-3.9,5.4-10,8.6-16.6,8.6s-2.2,0-3.3-.3c-7.7-1.2-13.9-6.6-16.3-14.1l-6-19.3-165.9,165.9c-1.5,1.5-3.4,2.2-5.3,2.2s-3.8-.7-5.3-2.2l-42.6-42.6c-2.9-2.9-2.9-7.7,0-10.6ZM319.9,452.3c.9,2.9,3.3,3.6,4.3,3.8,1,.2,3.5.3,5.3-2.2l38.4-53.9c1.4-2,3.7-3.1,6.1-3.1h66.8c3,0,4.4-2.1,4.9-3,.4-.9,1.3-3.3-.5-5.7l-39.9-53c-1.5-2-1.9-4.6-1.1-6.9l21.4-63c1-2.9-.6-4.9-1.3-5.6-.6-.6-1.9-1.6-3.8-1.6s-1.2,0-1.8.3l-63,21.4c-2.3.8-4.9.4-6.9-1.1l-53-39.9c-2.4-1.8-4.8-1-5.7-.5-.9.5-3,1.8-3,4.9v66.8c0,2.4-1.2,4.7-3.1,6.1l-53.9,38.4c-2.5,1.8-2.4,4.3-2.2,5.3.2,1,.8,3.4,3.8,4.3l63.7,19.8c2.3.7,4.2,2.6,4.9,4.9l19.8,63.7Z"/>
    <path d="M243.9,401.4h0c2.9,3,2.8,7.7-.1,10.6-1.5,1.4-3.3,2.1-5.2,2.1s-3.9-.8-5.4-2.3c-2.9-3-2.8-7.7.1-10.6,3-2.9,7.7-2.8,10.6.1Z"/>
  </g>
</svg>